ffmpeg started on 2026-03-22 at 17:35:18
Report written to "D:\Convert\FFMetrics\reports\ssim_report-6.txt"
Log level: 32
Command line:
ffmpeg -hide_banner -nostdin -r 24000/1001 -i "F:\\Convert\\files\\[DC] Make Heroine ga Oosugiru - 07_Telegram_HEVC(239).mkv" -r 24000/1001 -i "F:\\Convert\\files\\[DC] Make Heroine ga Oosugiru - 07_Telegram.mp4" -lavfi "[0:v]settb=AVTB,setpts=PTS-STARTPTS,format=pix_fmts=yuv420p10le,fps=24000/1001,scale=1920:1080:flags=lanczos:param0=3:out_range=limited:out_color_matrix=bt709:out_chroma_loc=left,setsar=1/1,setdar=(1920/1080)*(1/1),colorspace=format=yuv420p10:range=tv:primaries=bt709:trc=bt709:space=bt709:fast=0[main];[1:v]settb=AVTB,setpts=PTS-STARTPTS,format=pix_fmts=yuv420p,fps=24000/1001,scale=1920:1080:flags=lanczos:param0=3:out_range=limited:out_color_matrix=bt709:out_chroma_loc=left,setsar=1.000,setdar=1.778,colorspace=format=yuv420p:range=tv:primaries=bt709:trc=bt709:space=bt709:fast=0[ref];[main][ref]ssim=eof_action=endall:stats_file='D\\:/Convert/FFMetrics/logs/ssim_logfile-6.txt'" -f null -
Input #0, matroska,webm, from 'F:\Convert\files\[DC] Make Heroine ga Oosugiru - 07_Telegram_HEVC(239).mkv':
  Metadata:
    COMPATIBLE_BRANDS: isomiso2avc1mp41
    MAJOR_BRAND     : isom
    MINOR_VERSION   : 512
    ENCODER         : Lavf61.7.100
  Duration: 00:24:06.79, start: -0.021000, bitrate: 1001 kb/s
  Stream #0:0: Video: hevc (Main 10), yuv420p10le(tv, bt709, progressive), 1920x1080 [SAR 1:1 DAR 16:9], 23.98 fps, 23.98 tbr, 1k tbn (default)
      Metadata:
        HANDLER_NAME    : VideoHandler
        VENDOR_ID       : [0][0][0][0]
        ENCODER         : Lavc61.19.100 libx265
        BPS             : 803917
        DURATION        : 00:24:06.569708333
        NUMBER_OF_FRAMES: 34683
        NUMBER_OF_BYTES : 145365331
        _STATISTICS_WRITING_APP: mkvpropedit v94.0 ('Initiate') 64-bit
        _STATISTICS_WRITING_DATE_UTC: 2026-03-21 14:55:35
        _STATISTICS_TAGS: BPS DURATION NUMBER_OF_FRAMES NUMBER_OF_BYTES
  Stream #0:1: Audio: aac (LC), 48000 Hz, stereo, fltp (default)
      Metadata:
        HANDLER_NAME    : SoundHandler
        VENDOR_ID       : [0][0][0][0]
        ENCODER         : Lavc61.19.100 aac
        BPS             : 193194
        DURATION        : 00:24:06.784000000
        NUMBER_OF_FRAMES: 67819
        NUMBER_OF_BYTES : 34938755
        _STATISTICS_WRITING_APP: mkvpropedit v94.0 ('Initiate') 64-bit
        _STATISTICS_WRITING_DATE_UTC: 2026-03-21 14:55:35
        _STATISTICS_TAGS: BPS DURATION NUMBER_OF_FRAMES NUMBER_OF_BYTES
Input #1, mov,mp4,m4a,3gp,3g2,mj2, from 'F:\Convert\files\[DC] Make Heroine ga Oosugiru - 07_Telegram.mp4':
  Metadata:
    major_brand     : isom
    minor_version   : 512
    compatible_brands: isomiso2avc1mp41
    encoder         : Lavf60.16.100
  Duration: 00:24:06.74, start: 0.000000, bitrate: 3764 kb/s
  Stream #1:0[0x1](und): Video: h264 (High) (avc1 / 0x31637661), yuv420p(tv, bt709, progressive), 1920x1080 [SAR 1:1 DAR 16:9], 3616 kb/s, 23.98 fps, 23.98 tbr, 24k tbn (default)
      Metadata:
        handler_name    : VideoHandler
        vendor_id       : [0][0][0][0]
        encoder         : Lavc60.31.102 h264_qsv
  Stream #1:1[0x2](und): Audio: aac (HE-AACv2) (mp4a / 0x6134706D), 48000 Hz, stereo, fltp, 144 kb/s (default)
      Metadata:
        handler_name    : SoundHandler
        vendor_id       : [0][0][0][0]
Stream mapping:
  Stream #0:0 (hevc) -> settb:default
  Stream #1:0 (h264) -> settb:default
  ssim:default -> Stream #0:0 (wrapped_avframe)
  Stream #0:1 -> #0:1 (aac (native) -> pcm_s16le (native))
Output #0, null, to 'pipe:':
  Metadata:
    COMPATIBLE_BRANDS: isomiso2avc1mp41
    MAJOR_BRAND     : isom
    MINOR_VERSION   : 512
    encoder         : Lavf61.7.100
  Stream #0:0: Video: wrapped_avframe, yuv420p10le(tv, bt709, progressive), 1920x1080 [SAR 1:1 DAR 16:9], q=2-31, 200 kb/s, 23.98 fps, 23.98 tbn
      Metadata:
        encoder         : Lavc61.19.100 wrapped_avframe
  Stream #0:1: Audio: pcm_s16le, 48000 Hz, stereo, s16, 1536 kb/s (default)
      Metadata:
        HANDLER_NAME    : SoundHandler
        VENDOR_ID       : [0][0][0][0]
        _STATISTICS_TAGS: BPS DURATION NUMBER_OF_FRAMES NUMBER_OF_BYTES
        BPS             : 193194
        DURATION        : 00:24:06.784000000
        NUMBER_OF_FRAMES: 67819
        NUMBER_OF_BYTES : 34938755
        _STATISTICS_WRITING_APP: mkvpropedit v94.0 ('Initiate') 64-bit
        _STATISTICS_WRITING_DATE_UTC: 2026-03-21 14:55:35
        encoder         : Lavc61.19.100 pcm_s16le
frame=  126 fps=0.0 q=-0.0 size=N/A time=00:00:05.25 bitrate=N/A speed=10.1x    frame=  317 fps=307 q=-0.0 size=N/A time=00:00:13.22 bitrate=N/A speed=12.8x    frame=  508 fps=329 q=-0.0 size=N/A time=00:00:21.18 bitrate=N/A speed=13.7x    frame=  706 fps=341 q=-0.0 size=N/A time=00:00:29.44 bitrate=N/A speed=14.2x    frame=  888 fps=344 q=-0.0 size=N/A time=00:00:37.03 bitrate=N/A speed=14.3x    frame= 1028 fps=332 q=-0.0 size=N/A time=00:00:42.87 bitrate=N/A speed=13.8x    frame= 1197 fps=332 q=-0.0 size=N/A time=00:00:49.92 bitrate=N/A speed=13.8x    frame= 1360 fps=329 q=-0.0 size=N/A time=00:00:56.72 bitrate=N/A speed=13.7x    frame= 1520 fps=327 q=-0.0 size=N/A time=00:01:03.39 bitrate=N/A speed=13.6x    frame= 1665 fps=323 q=-0.0 size=N/A time=00:01:09.44 bitrate=N/A speed=13.5x    frame= 1839 fps=323 q=-0.0 size=N/A time=00:01:16.70 bitrate=N/A speed=13.5x    frame= 2016 fps=324 q=-0.0 size=N/A time=00:01:24.08 bitrate=N/A speed=13.5x    frame= 2120 fps=315 q=-0.0 size=N/A time=00:01:28.42 bitrate=N/A speed=13.1x    frame= 2274 fps=314 q=-0.0 size=N/A time=00:01:34.84 bitrate=N/A speed=13.1x    frame= 2422 fps=313 q=-0.0 size=N/A time=00:01:41.01 bitrate=N/A speed=  13x    frame= 2563 fps=310 q=-0.0 size=N/A time=00:01:46.89 bitrate=N/A speed=12.9x    frame= 2728 fps=310 q=-0.0 size=N/A time=00:01:53.78 bitrate=N/A speed=12.9x    frame= 2910 fps=313 q=-0.0 size=N/A time=00:02:01.37 bitrate=N/A speed=13.1x    frame= 3101 fps=316 q=-0.0 size=N/A time=00:02:09.33 bitrate=N/A speed=13.2x    frame= 3291 fps=318 q=-0.0 size=N/A time=00:02:17.26 bitrate=N/A speed=13.3x    frame= 3488 fps=322 q=-0.0 size=N/A time=00:02:25.47 bitrate=N/A speed=13.4x    frame= 3678 fps=324 q=-0.0 size=N/A time=00:02:33.40 bitrate=N/A speed=13.5x    frame= 3869 fps=325 q=-0.0 size=N/A time=00:02:41.36 bitrate=N/A speed=13.6x    frame= 4066 fps=328 q=-0.0 size=N/A time=00:02:49.58 bitrate=N/A speed=13.7x    frame= 4260 fps=330 q=-0.0 size=N/A time=00:02:57.67 bitrate=N/A speed=13.8x    frame= 4451 fps=332 q=-0.0 size=N/A time=00:03:05.64 bitrate=N/A speed=13.8x    frame= 4640 fps=333 q=-0.0 size=N/A time=00:03:13.52 bitrate=N/A speed=13.9x    frame= 4837 fps=335 q=-0.0 size=N/A time=00:03:21.74 bitrate=N/A speed=  14x    frame= 5030 fps=336 q=-0.0 size=N/A time=00:03:29.79 bitrate=N/A speed=  14x    frame= 5220 fps=337 q=-0.0 size=N/A time=00:03:37.71 bitrate=N/A speed=14.1x    frame= 5414 fps=338 q=-0.0 size=N/A time=00:03:45.80 bitrate=N/A speed=14.1x    frame= 5606 fps=339 q=-0.0 size=N/A time=00:03:53.81 bitrate=N/A speed=14.2x    frame= 5794 fps=340 q=-0.0 size=N/A time=00:04:01.65 bitrate=N/A speed=14.2x    frame= 5989 fps=341 q=-0.0 size=N/A time=00:04:09.79 bitrate=N/A speed=14.2x    frame= 6187 fps=342 q=-0.0 size=N/A time=00:04:18.04 bitrate=N/A speed=14.3x    frame= 6379 fps=343 q=-0.0 size=N/A time=00:04:26.05 bitrate=N/A speed=14.3x    frame= 6571 fps=344 q=-0.0 size=N/A time=00:04:34.06 bitrate=N/A speed=14.4x    frame= 6767 fps=345 q=-0.0 size=N/A time=00:04:42.24 bitrate=N/A speed=14.4x    frame= 6962 fps=346 q=-0.0 size=N/A time=00:04:50.37 bitrate=N/A speed=14.4x    frame= 7150 fps=346 q=-0.0 size=N/A time=00:04:58.21 bitrate=N/A speed=14.4x    frame= 7340 fps=347 q=-0.0 size=N/A time=00:05:06.13 bitrate=N/A speed=14.5x    frame= 7533 fps=347 q=-0.0 size=N/A time=00:05:14.18 bitrate=N/A speed=14.5x    frame= 7717 fps=348 q=-0.0 size=N/A time=00:05:21.86 bitrate=N/A speed=14.5x    frame= 7907 fps=348 q=-0.0 size=N/A time=00:05:29.78 bitrate=N/A speed=14.5x    frame= 8093 fps=348 q=-0.0 size=N/A time=00:05:37.54 bitrate=N/A speed=14.5x    frame= 8294 fps=349 q=-0.0 size=N/A time=00:05:45.92 bitrate=N/A speed=14.6x    frame= 8482 fps=349 q=-0.0 size=N/A time=00:05:53.77 bitrate=N/A speed=14.6x    frame= 8672 fps=350 q=-0.0 size=N/A time=00:06:01.69 bitrate=N/A speed=14.6x    frame= 8864 fps=350 q=-0.0 size=N/A time=00:06:09.70 bitrate=N/A speed=14.6x    frame= 9057 fps=351 q=-0.0 size=N/A time=00:06:17.75 bitrate=N/A speed=14.6x    frame= 9246 fps=351 q=-0.0 size=N/A time=00:06:25.63 bitrate=N/A speed=14.6x    frame= 9435 fps=351 q=-0.0 size=N/A time=00:06:33.51 bitrate=N/A speed=14.7x    frame= 9631 fps=352 q=-0.0 size=N/A time=00:06:41.69 bitrate=N/A speed=14.7x    frame= 9823 fps=352 q=-0.0 size=N/A time=00:06:49.70 bitrate=N/A speed=14.7x    frame=10016 fps=353 q=-0.0 size=N/A time=00:06:57.75 bitrate=N/A speed=14.7x    frame=10199 fps=353 q=-0.0 size=N/A time=00:07:05.38 bitrate=N/A speed=14.7x    frame=10396 fps=353 q=-0.0 size=N/A time=00:07:13.59 bitrate=N/A speed=14.7x    frame=10588 fps=354 q=-0.0 size=N/A time=00:07:21.60 bitrate=N/A speed=14.7x    frame=10777 fps=354 q=-0.0 size=N/A time=00:07:29.49 bitrate=N/A speed=14.8x    frame=10968 fps=354 q=-0.0 size=N/A time=00:07:37.45 bitrate=N/A speed=14.8x    frame=11149 fps=354 q=-0.0 size=N/A time=00:07:45.00 bitrate=N/A speed=14.8x    frame=11345 fps=354 q=-0.0 size=N/A time=00:07:53.18 bitrate=N/A speed=14.8x    frame=11533 fps=355 q=-0.0 size=N/A time=00:08:01.02 bitrate=N/A speed=14.8x    frame=11726 fps=355 q=-0.0 size=N/A time=00:08:09.07 bitrate=N/A speed=14.8x    frame=11923 fps=355 q=-0.0 size=N/A time=00:08:17.28 bitrate=N/A speed=14.8x    frame=12117 fps=356 q=-0.0 size=N/A time=00:08:25.37 bitrate=N/A speed=14.8x    frame=12304 fps=356 q=-0.0 size=N/A time=00:08:33.17 bitrate=N/A speed=14.8x    frame=12495 fps=356 q=-0.0 size=N/A time=00:08:41.14 bitrate=N/A speed=14.9x    frame=12692 fps=356 q=-0.0 size=N/A time=00:08:49.36 bitrate=N/A speed=14.9x    frame=12880 fps=356 q=-0.0 size=N/A time=00:08:57.20 bitrate=N/A speed=14.9x    frame=13071 fps=357 q=-0.0 size=N/A time=00:09:05.16 bitrate=N/A speed=14.9x    frame=13262 fps=357 q=-0.0 size=N/A time=00:09:13.13 bitrate=N/A speed=14.9x    frame=13454 fps=357 q=-0.0 size=N/A time=00:09:21.14 bitrate=N/A speed=14.9x    frame=13644 fps=357 q=-0.0 size=N/A time=00:09:29.06 bitrate=N/A speed=14.9x    frame=13835 fps=357 q=-0.0 size=N/A time=00:09:37.03 bitrate=N/A speed=14.9x    frame=14023 fps=358 q=-0.0 size=N/A time=00:09:44.87 bitrate=N/A speed=14.9x    frame=14201 fps=357 q=-0.0 size=N/A time=00:09:52.30 bitrate=N/A speed=14.9x    frame=14396 fps=358 q=-0.0 size=N/A time=00:10:00.43 bitrate=N/A speed=14.9x    frame=14580 fps=358 q=-0.0 size=N/A time=00:10:08.10 bitrate=N/A speed=14.9x    frame=14776 fps=358 q=-0.0 size=N/A time=00:10:16.28 bitrate=N/A speed=14.9x    frame=14971 fps=358 q=-0.0 size=N/A time=00:10:24.41 bitrate=N/A speed=14.9x    frame=15143 fps=358 q=-0.0 size=N/A time=00:10:31.58 bitrate=N/A speed=14.9x    frame=15323 fps=358 q=-0.0 size=N/A time=00:10:39.09 bitrate=N/A speed=14.9x    frame=15511 fps=358 q=-0.0 size=N/A time=00:10:46.93 bitrate=N/A speed=14.9x    frame=15710 fps=358 q=-0.0 size=N/A time=00:10:55.23 bitrate=N/A speed=14.9x    frame=15901 fps=358 q=-0.0 size=N/A time=00:11:03.20 bitrate=N/A speed=14.9x    frame=16093 fps=358 q=-0.0 size=N/A time=00:11:11.21 bitrate=N/A speed=14.9x    frame=16278 fps=358 q=-0.0 size=N/A time=00:11:18.92 bitrate=N/A speed=14.9x    frame=16478 fps=359 q=-0.0 size=N/A time=00:11:27.26 bitrate=N/A speed=  15x    frame=16670 fps=359 q=-0.0 size=N/A time=00:11:35.27 bitrate=N/A speed=  15x    frame=16863 fps=359 q=-0.0 size=N/A time=00:11:43.32 bitrate=N/A speed=  15x    frame=17053 fps=359 q=-0.0 size=N/A time=00:11:51.25 bitrate=N/A speed=  15x    frame=17245 fps=359 q=-0.0 size=N/A time=00:11:59.26 bitrate=N/A speed=  15x    frame=17446 fps=360 q=-0.0 size=N/A time=00:12:07.64 bitrate=N/A speed=  15x    frame=17627 fps=359 q=-0.0 size=N/A time=00:12:15.19 bitrate=N/A speed=  15x    frame=17816 fps=360 q=-0.0 size=N/A time=00:12:23.07 bitrate=N/A speed=  15x    frame=18010 fps=360 q=-0.0 size=N/A time=00:12:31.16 bitrate=N/A speed=  15x    frame=18205 fps=360 q=-0.0 size=N/A time=00:12:39.30 bitrate=N/A speed=  15x    frame=18390 fps=360 q=-0.0 size=N/A time=00:12:47.01 bitrate=N/A speed=  15x    frame=18579 fps=360 q=-0.0 size=N/A time=00:12:54.89 bitrate=N/A speed=  15x    frame=18775 fps=360 q=-0.0 size=N/A time=00:13:03.07 bitrate=N/A speed=  15x    frame=18964 fps=360 q=-0.0 size=N/A time=00:13:10.95 bitrate=N/A speed=  15x    frame=19157 fps=360 q=-0.0 size=N/A time=00:13:19.00 bitrate=N/A speed=  15x    frame=19347 fps=360 q=-0.0 size=N/A time=00:13:26.93 bitrate=N/A speed=  15x    frame=19542 fps=361 q=-0.0 size=N/A time=00:13:35.06 bitrate=N/A speed=  15x    frame=19735 fps=361 q=-0.0 size=N/A time=00:13:43.11 bitrate=N/A speed=  15x    frame=19931 fps=361 q=-0.0 size=N/A time=00:13:51.28 bitrate=N/A speed=15.1x    frame=20129 fps=361 q=-0.0 size=N/A time=00:13:59.54 bitrate=N/A speed=15.1x    frame=20325 fps=361 q=-0.0 size=N/A time=00:14:07.72 bitrate=N/A speed=15.1x    frame=20507 fps=361 q=-0.0 size=N/A time=00:14:15.31 bitrate=N/A speed=15.1x    frame=20690 fps=361 q=-0.0 size=N/A time=00:14:22.94 bitrate=N/A speed=15.1x    frame=20892 fps=361 q=-0.0 size=N/A time=00:14:31.37 bitrate=N/A speed=15.1x    frame=21082 fps=361 q=-0.0 size=N/A time=00:14:39.29 bitrate=N/A speed=15.1x    frame=21276 fps=362 q=-0.0 size=N/A time=00:14:47.38 bitrate=N/A speed=15.1x    frame=21464 fps=362 q=-0.0 size=N/A time=00:14:55.22 bitrate=N/A speed=15.1x    frame=21660 fps=362 q=-0.0 size=N/A time=00:15:03.40 bitrate=N/A speed=15.1x    frame=21853 fps=362 q=-0.0 size=N/A time=00:15:11.45 bitrate=N/A speed=15.1x    frame=22043 fps=362 q=-0.0 size=N/A time=00:15:19.37 bitrate=N/A speed=15.1x    frame=22238 fps=362 q=-0.0 size=N/A time=00:15:27.50 bitrate=N/A speed=15.1x    frame=22432 fps=362 q=-0.0 size=N/A time=00:15:35.60 bitrate=N/A speed=15.1x    frame=22623 fps=362 q=-0.0 size=N/A time=00:15:43.56 bitrate=N/A speed=15.1x    frame=22811 fps=362 q=-0.0 size=N/A time=00:15:51.40 bitrate=N/A speed=15.1x    frame=23005 fps=362 q=-0.0 size=N/A time=00:15:59.50 bitrate=N/A speed=15.1x    frame=23206 fps=363 q=-0.0 size=N/A time=00:16:07.88 bitrate=N/A speed=15.1x    frame=23396 fps=363 q=-0.0 size=N/A time=00:16:15.80 bitrate=N/A speed=15.1x    frame=23588 fps=363 q=-0.0 size=N/A time=00:16:23.81 bitrate=N/A speed=15.1x    frame=23775 fps=363 q=-0.0 size=N/A time=00:16:31.61 bitrate=N/A speed=15.1x    frame=23975 fps=363 q=-0.0 size=N/A time=00:16:39.95 bitrate=N/A speed=15.1x    frame=24155 fps=363 q=-0.0 size=N/A time=00:16:47.46 bitrate=N/A speed=15.1x    frame=24350 fps=363 q=-0.0 size=N/A time=00:16:55.59 bitrate=N/A speed=15.1x    frame=24542 fps=363 q=-0.0 size=N/A time=00:17:03.60 bitrate=N/A speed=15.1x    frame=24739 fps=363 q=-0.0 size=N/A time=00:17:11.86 bitrate=N/A speed=15.1x    frame=24929 fps=363 q=-0.0 size=N/A time=00:17:19.74 bitrate=N/A speed=15.1x    frame=25119 fps=363 q=-0.0 size=N/A time=00:17:27.67 bitrate=N/A speed=15.2x    frame=25317 fps=363 q=-0.0 size=N/A time=00:17:35.92 bitrate=N/A speed=15.2x    frame=25514 fps=364 q=-0.0 size=N/A time=00:17:44.14 bitrate=N/A speed=15.2x    frame=25705 fps=364 q=-0.0 size=N/A time=00:17:52.11 bitrate=N/A speed=15.2x    frame=25899 fps=364 q=-0.0 size=N/A time=00:18:00.20 bitrate=N/A speed=15.2x    frame=26090 fps=364 q=-0.0 size=N/A time=00:18:08.17 bitrate=N/A speed=15.2x    frame=26293 fps=364 q=-0.0 size=N/A time=00:18:16.63 bitrate=N/A speed=15.2x    frame=26484 fps=364 q=-0.0 size=N/A time=00:18:24.60 bitrate=N/A speed=15.2x    frame=26677 fps=364 q=-0.0 size=N/A time=00:18:32.65 bitrate=N/A speed=15.2x    frame=26871 fps=364 q=-0.0 size=N/A time=00:18:40.74 bitrate=N/A speed=15.2x    frame=27059 fps=364 q=-0.0 size=N/A time=00:18:48.58 bitrate=N/A speed=15.2x    frame=27247 fps=364 q=-0.0 size=N/A time=00:18:56.42 bitrate=N/A speed=15.2x    frame=27433 fps=364 q=-0.0 size=N/A time=00:19:04.18 bitrate=N/A speed=15.2x    frame=27630 fps=364 q=-0.0 size=N/A time=00:19:12.40 bitrate=N/A speed=15.2x    frame=27818 fps=364 q=-0.0 size=N/A time=00:19:20.24 bitrate=N/A speed=15.2x    frame=28007 fps=364 q=-0.0 size=N/A time=00:19:28.12 bitrate=N/A speed=15.2x    frame=28198 fps=364 q=-0.0 size=N/A time=00:19:36.09 bitrate=N/A speed=15.2x    frame=28394 fps=364 q=-0.0 size=N/A time=00:19:44.26 bitrate=N/A speed=15.2x    frame=28580 fps=364 q=-0.0 size=N/A time=00:19:52.02 bitrate=N/A speed=15.2x    frame=28771 fps=364 q=-0.0 size=N/A time=00:19:59.99 bitrate=N/A speed=15.2x    frame=28950 fps=364 q=-0.0 size=N/A time=00:20:07.45 bitrate=N/A speed=15.2x    frame=29130 fps=364 q=-0.0 size=N/A time=00:20:14.96 bitrate=N/A speed=15.2x    frame=29316 fps=364 q=-0.0 size=N/A time=00:20:22.72 bitrate=N/A speed=15.2x    frame=29494 fps=364 q=-0.0 size=N/A time=00:20:30.14 bitrate=N/A speed=15.2x    frame=29674 fps=364 q=-0.0 size=N/A time=00:20:37.65 bitrate=N/A speed=15.2x    frame=29860 fps=364 q=-0.0 size=N/A time=00:20:45.41 bitrate=N/A speed=15.2x    frame=30027 fps=364 q=-0.0 size=N/A time=00:20:52.37 bitrate=N/A speed=15.2x    frame=30208 fps=364 q=-0.0 size=N/A time=00:20:59.92 bitrate=N/A speed=15.2x    frame=30400 fps=364 q=-0.0 size=N/A time=00:21:07.93 bitrate=N/A speed=15.2x    frame=30589 fps=364 q=-0.0 size=N/A time=00:21:15.81 bitrate=N/A speed=15.2x    frame=30782 fps=364 q=-0.0 size=N/A time=00:21:23.86 bitrate=N/A speed=15.2x    frame=30964 fps=364 q=-0.0 size=N/A time=00:21:31.45 bitrate=N/A speed=15.2x    frame=31162 fps=364 q=-0.0 size=N/A time=00:21:39.71 bitrate=N/A speed=15.2x    frame=31351 fps=364 q=-0.0 size=N/A time=00:21:47.59 bitrate=N/A speed=15.2x    frame=31538 fps=364 q=-0.0 size=N/A time=00:21:55.39 bitrate=N/A speed=15.2x    frame=31725 fps=364 q=-0.0 size=N/A time=00:22:03.19 bitrate=N/A speed=15.2x    frame=31914 fps=364 q=-0.0 size=N/A time=00:22:11.07 bitrate=N/A speed=15.2x    frame=32106 fps=364 q=-0.0 size=N/A time=00:22:19.08 bitrate=N/A speed=15.2x    frame=32291 fps=364 q=-0.0 size=N/A time=00:22:26.80 bitrate=N/A speed=15.2x    frame=32488 fps=364 q=-0.0 size=N/A time=00:22:35.02 bitrate=N/A speed=15.2x    frame=32658 fps=364 q=-0.0 size=N/A time=00:22:42.11 bitrate=N/A speed=15.2x    frame=32827 fps=363 q=-0.0 size=N/A time=00:22:49.15 bitrate=N/A speed=15.2x    frame=32999 fps=363 q=-0.0 size=N/A time=00:22:56.33 bitrate=N/A speed=15.1x    frame=33185 fps=363 q=-0.0 size=N/A time=00:23:04.09 bitrate=N/A speed=15.1x    frame=33365 fps=363 q=-0.0 size=N/A time=00:23:11.59 bitrate=N/A speed=15.1x    frame=33539 fps=363 q=-0.0 size=N/A time=00:23:18.85 bitrate=N/A speed=15.1x    frame=33694 fps=363 q=-0.0 size=N/A time=00:23:25.32 bitrate=N/A speed=15.1x    frame=33822 fps=362 q=-0.0 size=N/A time=00:23:30.65 bitrate=N/A speed=15.1x    frame=33962 fps=362 q=-0.0 size=N/A time=00:23:36.49 bitrate=N/A speed=15.1x    frame=34138 fps=361 q=-0.0 size=N/A time=00:23:43.83 bitrate=N/A speed=15.1x    frame=34297 fps=361 q=-0.0 size=N/A time=00:23:50.47 bitrate=N/A speed=15.1x    frame=34429 fps=361 q=-0.0 size=N/A time=00:23:55.97 bitrate=N/A speed=  15x    frame=34608 fps=361 q=-0.0 size=N/A time=00:24:03.44 bitrate=N/A speed=  15x    [Parsed_ssim_16 @ 000001adbc7b8600] SSIM Y:0.994239 (22.394784) U:0.993983 (22.206386) V:0.993589 (21.931008) All:0.994088 (22.282582)
[out#0/null @ 000001adb4cae740] video:14903KiB audio:271276KiB subtitle:0KiB other streams:0KiB global headers:0KiB muxing overhead: unknown
frame=34683 fps=361 q=-0.0 Lsize=N/A time=00:24:06.57 bitrate=N/A speed=  15x    
